<svg width="123" height="102" viewBox="0 0 123 102" fill="none" xmlns="http://www.w3.org/2000/svg">
<path fill-rule="evenodd" clip-rule="evenodd" d="M19.3523 28.5596C18.1612 29.1611 17.1852 29.7979 16.3921 30.3477C15.6242 30.9256 15.0094 31.3885 14.6365 31.7615C14.2503 32.1167 14.0439 32.3054 14.0439 32.3054C14.0439 32.3054 14.2089 32.0784 14.5185 31.6538C14.8193 31.2189 15.3131 30.6175 16.0089 29.9069C16.7195 29.2171 17.6098 28.3798 18.764 27.6015C19.902 26.801 21.2538 25.9814 22.8061 25.2517C24.3524 24.5087 26.0859 23.8247 27.9758 23.2645C28.4461 23.126 28.9296 22.9904 29.4322 22.8607L29.6033 22.8179L29.6004 22.47L29.6077 21.6519C29.5914 21.1005 29.6548 20.5507 29.7257 19.9964C29.9807 17.7822 30.5614 15.5004 31.6022 13.4115C32.609 11.3094 33.915 9.33704 35.401 7.5416C36.912 5.76377 38.5925 4.15996 40.3482 2.71973C41.2105 2.00476 42.151 1.31339 43.0605 0.710472L43.3952 0.486412L43.5632 0.374382C43.7328 0.269712 43.861 0.193057 44.0438 0.129677C44.7425 -0.145993 45.5916 0.038292 46.112 0.489372C46.6486 0.958152 46.967 1.60086 46.852 2.44405C46.8034 2.70787 46.8417 2.5177 46.765 2.81113L46.7135 2.98942L46.6117 3.3433C45.9882 5.20801 45.7287 7.12888 45.5724 8.95675C45.4471 10.792 45.5385 12.5536 45.6638 14.1811C45.8658 15.7996 46.0648 17.3003 46.3626 18.6093C46.6426 19.9228 46.9346 21.0637 47.2057 21.9968C47.7483 23.8631 48.161 24.9097 48.161 24.9097C48.161 24.9097 47.5287 23.9795 46.6618 22.2062C45.7995 20.4357 44.7248 17.7985 43.9981 14.4405C43.6797 12.7555 43.3775 10.8996 43.3804 8.9007C43.3952 7.18332 43.4925 5.34665 43.917 3.50103C43.3304 3.955 42.7539 4.41644 42.1658 4.90589C40.5487 6.2738 39.0141 7.7878 37.6623 9.42992C34.9042 12.6597 32.8832 16.4836 32.301 20.3384C32.214 20.8175 32.1343 21.2952 32.1299 21.7743L32.0901 22.4878L32.015 23.4341C31.9102 24.0458 31.4946 24.6119 30.9049 24.8831C30.759 24.9509 30.6057 24.9982 30.4524 25.0291L30.2696 25.0601L29.904 25.1205C29.4396 25.2119 28.9798 25.3018 28.5271 25.3902C26.7095 25.8 24.9996 26.2717 23.4562 26.8099C21.9172 27.3597 20.5388 27.9538 19.3523 28.5596ZM44.2664 2.00036C44.265 2.01211 44.2664 2.01945 44.2649 2.03132C44.2668 2.0219 44.2689 2.0115 44.271 2.00195L44.2712 2.00072C44.2784 1.96621 44.2836 1.942 44.2664 2.00036ZM44.2635 2.046C44.262 2.05187 44.262 2.05492 44.262 2.05933L44.2723 2.01798C44.2649 2.0416 44.2664 2.04013 44.2635 2.046ZM51.8625 13.1477C51.2243 13.637 50.6331 14.1295 50.1069 14.6114C48.0048 16.5455 46.8534 18.2422 46.8534 18.2422C46.8534 18.2422 46.9066 17.7322 47.1793 16.8757C47.455 16.0251 47.9531 14.8223 48.8214 13.5266C49.2504 12.875 49.7546 12.1851 50.3782 11.5364C50.984 10.8716 51.6665 10.195 52.4625 9.60981C53.2423 9.00386 54.0885 8.41578 55.0099 7.93514C55.4741 7.70522 55.9238 7.42514 56.4177 7.24526L57.1473 6.94608L57.513 6.79716L57.6042 6.76032L57.65 6.74111L57.8136 6.68948C57.8682 6.6792 57.8858 6.65558 58.1983 6.61434C59.8788 6.50531 60.9417 7.96023 60.6041 9.41074C60.5629 9.58768 60.4907 9.75274 60.4125 9.909C60.3313 10.0565 60.2135 10.2274 60.2016 10.2378L59.9791 10.5311L59.5575 11.0957C59.021 11.8504 58.4608 12.592 57.9831 13.3394C57.0102 14.8296 56.1935 16.2669 55.6025 17.5597C55.0143 18.8526 54.6516 19.995 54.4762 20.8338C54.3804 21.2524 54.3244 21.5885 54.2964 21.8229C54.2625 22.0588 54.2447 22.1841 54.2447 22.1841C54.2447 22.1841 54.2079 22.0646 54.1372 21.8377C54.0694 21.6092 53.9426 21.2687 53.8895 20.8219C53.7332 19.9331 53.6831 18.6005 53.9838 17.06C54.2535 15.5122 54.858 13.7743 55.7292 12.048C56.0328 11.4687 56.3557 10.8819 56.6991 10.2997C56.565 10.3617 56.4324 10.425 56.2982 10.484C55.4801 10.8717 54.6708 11.2637 53.9426 11.734C53.2055 12.191 52.4964 12.6539 51.8625 13.1477ZM99.676 10.3992C99.9788 9.57738 100.844 9.18814 101.622 9.44755C102.401 9.70708 102.834 10.5722 102.531 11.394L92.5392 40.2874C92.3229 40.9362 91.7174 41.3256 91.1118 41.3256C90.9821 41.3256 90.8091 41.3256 90.636 41.2391C89.8142 40.9362 89.425 40.0712 89.6844 39.2926L99.676 10.3992ZM58.617 9.51986L58.6022 9.52573C58.6568 9.51398 58.6495 9.51398 58.617 9.51986ZM89.6844 31.6367C90.4198 32.1125 90.636 33.0641 90.1603 33.7561C89.9007 34.1887 89.3817 34.4482 88.8626 34.3184C88.6031 34.3184 88.3003 34.2752 88.0408 34.1022L76.2759 26.4896C75.8433 26.1868 75.5838 25.7543 75.5838 25.1919C75.5838 24.6296 75.8433 24.1971 76.2759 23.8943L88.0408 16.2817C88.7329 15.8491 89.6844 16.0654 90.1603 16.7575C90.5928 17.4927 90.3765 18.4012 89.6844 18.8769L79.8659 25.2784L89.6844 31.6367ZM104.261 16.4114L116.026 24.024C116.415 24.2836 116.675 24.7594 116.718 25.3217C116.718 25.884 116.459 26.3165 116.026 26.6193L104.261 34.4049C104.001 34.5347 103.742 34.6213 103.439 34.6213C102.92 34.6213 102.444 34.4049 102.142 33.9292C101.709 33.1939 101.925 32.2856 102.617 31.8097L112.436 25.4082L102.617 19.0066C101.882 18.5309 101.666 17.5793 102.142 16.8873C102.617 16.1519 103.569 15.9356 104.261 16.4114ZM55.2678 24.802L49.5511 22.6425L49.6205 22.3521C53.5711 23.3294 57.5335 24.3627 61.3028 25.9578C62.2493 26.3558 63.1691 26.7848 64.0801 27.2698C64.9852 27.7592 65.8446 28.3828 66.5213 29.192C67.1964 30.0057 67.6017 31.0405 67.6785 32.0946C67.7035 32.6223 67.6961 33.1442 67.6063 33.6674C67.5517 34.1201 67.4308 34.5593 67.2244 34.9942C68.8842 36.0747 70.7196 36.8752 72.5504 37.6844C73.4938 38.1017 74.4388 38.5203 75.3675 38.9861C76.3006 39.4446 77.1999 39.9885 78.0726 40.5221L78.0872 40.531L78.1019 40.5428L78.1433 40.5767C78.6501 40.5842 79.1525 40.5788 79.6551 40.5733C80.6269 40.5626 81.5981 40.5521 82.601 40.6357C84.0869 40.7964 85.7482 40.9997 86.9482 42.2012C87.5143 42.7673 87.8149 43.6605 87.8105 44.4404C87.8268 45.2394 87.6601 46.0369 87.3152 46.7606C86.9748 47.5036 86.3998 48.0712 85.881 48.6151C85.3428 49.1606 84.7694 49.6794 84.1311 50.1261C83.8113 50.3487 83.4796 50.5521 83.1199 50.7276C82.7336 50.9221 82.3991 50.9884 82.1617 51.1949C81.9067 51.3924 81.7107 51.6636 81.6015 51.9687C81.5083 52.1945 81.5035 52.4107 81.4976 52.6878C81.4954 52.7871 81.4932 52.8943 81.4865 53.0125C81.4158 53.8187 81.0959 54.628 80.4841 55.206C79.8621 55.7956 79.0336 56.0138 78.27 56.1126C77.6999 56.1883 77.1369 56.1956 76.5823 56.203C76.3811 56.2057 76.181 56.2084 75.9822 56.2142L75.8436 56.2173L75.8407 56.2174C75.1401 56.2328 74.4159 56.2489 73.7061 56.2142C72.1907 56.1597 70.6827 56.0358 69.1791 55.8973C68.7885 55.8615 68.3982 55.8246 68.0079 55.7879C65.3958 55.5416 62.7881 55.2957 60.1781 55.3445C57.19 55.3858 54.1887 55.89 51.41 56.997C48.6371 58.1011 46.0751 59.7949 44.1087 62.0429C43.1122 63.1692 42.2601 64.3986 41.6881 65.7798C41.1044 67.1479 40.7992 68.6337 40.8745 70.1241L40.5796 70.1329C40.3423 68.622 40.4499 66.9828 40.9672 65.4777C41.4405 63.977 42.2999 62.5132 43.2182 61.2867C44.1971 59.9865 45.3042 58.8249 46.5748 57.8093C47.847 56.8069 49.2548 55.9769 50.7231 55.284C52.1972 54.6031 53.7391 54.0546 55.3253 53.695C56.8731 53.3382 58.5374 53.123 60.128 53.0272C62.9693 52.836 65.7384 53.0205 68.4087 53.1985C68.7443 53.2209 69.0794 53.2431 69.412 53.2645C70.9024 53.3589 72.3646 53.4355 73.7946 53.443C73.906 53.4408 74.036 53.4415 74.1663 53.4422L74.1854 53.4423C74.4223 53.4438 74.658 53.4452 74.7823 53.4311L75.9129 53.3957L77.0435 53.3618L77.185 53.3574L77.2484 53.3559L77.477 53.3382L77.8956 53.2911C78.4083 53.2266 78.5964 53.0748 78.5047 53.1264C78.5179 53.107 78.5934 52.9544 78.5987 52.7795L78.6016 52.3477C78.6326 51.7447 78.7137 51.4396 78.8597 50.9929C79.1457 50.1762 79.6674 49.4363 80.3633 48.8893C80.7112 48.6151 81.1018 48.391 81.513 48.2304L81.7475 48.1331C81.8345 48.0978 81.8094 48.0992 81.8462 48.0829C82.001 48.0034 82.2324 47.8633 82.4418 47.7116C82.8796 47.4064 83.3498 47.0083 83.7979 46.5602C84.0058 46.3568 84.283 46.0576 84.4244 45.9013C84.5354 45.772 84.538 45.7676 84.5444 45.7568C84.5482 45.7503 84.5534 45.7415 84.5851 45.7008L84.7031 45.5018C84.8491 45.2232 84.9375 44.8341 84.9361 44.5053C84.9375 44.352 84.9139 44.2473 84.9051 44.212L84.9022 44.2032L84.7989 44.0469C84.7901 44.0484 84.8196 44.1028 84.8402 44.1191C84.8459 44.1263 84.8433 44.124 84.8345 44.1158L84.8334 44.1148C84.8062 44.0896 84.7264 44.0156 84.6323 43.9702C84.4893 43.895 84.3081 43.8095 84.0722 43.7388C83.6034 43.5913 83.0049 43.4955 82.3416 43.41L81.8256 43.3525L81.6915 43.3393L81.6237 43.3319L81.6089 43.3305L81.4453 43.326L80.3146 43.2951L78.0533 43.2332L77.1231 43.2081L76.5173 42.6803L76.4981 42.6641L75.4132 41.9698L74.8279 41.6204L74.2132 41.2769C73.373 40.817 72.4679 40.4013 71.5494 39.9399C69.7128 39.0215 67.736 38.0781 65.8579 36.7205L64.5282 35.7578L65.1798 34.2381C65.2196 34.1452 65.3228 34.0921 65.3611 33.98C65.4172 33.7516 65.51 33.4376 65.5232 33.3108C65.6044 32.9997 65.6264 32.587 65.6471 32.2494C65.65 31.5595 65.4893 30.9596 65.0884 30.364C64.6771 29.7758 64.0433 29.2083 63.2781 28.7278C62.9214 28.4904 62.4556 28.2471 62.0266 27.9907C61.6124 27.7505 61.1849 27.5116 60.7442 27.2787C58.9915 26.3515 57.1517 25.5391 55.2678 24.802ZM78.5047 53.1264C78.503 53.1287 78.5025 53.1292 78.5029 53.1273L78.5047 53.1264ZM56.6313 34.4901C56.4692 34.1746 56.3748 33.8753 56.2997 33.5952C56.0431 32.5102 56.1625 31.6745 56.2539 31.0833C56.0416 31.0155 55.822 30.9285 55.6201 30.8754C53.8732 30.4127 52.4846 30.3846 52.4846 30.3846C52.4846 30.3846 52.747 30.1546 53.2894 29.882C53.8305 29.6151 54.6619 29.3055 55.7174 29.1936C56.2437 29.1316 56.8273 29.0992 57.4392 29.1611C58.0524 29.2068 58.701 29.3203 59.3452 29.5178C59.6754 29.6004 59.9953 29.7212 60.3152 29.8569C60.6424 29.9792 60.9637 30.1222 61.2689 30.2991C61.58 30.4671 61.9042 30.6234 62.1888 30.8342L62.6296 31.135C62.7976 31.2808 62.8271 31.1879 63.3047 31.7201C63.9017 32.5058 63.9031 33.5569 63.3902 34.3278C63.1676 34.7171 62.6281 35.0517 62.6016 35.0532L62.1092 35.3302C61.4532 35.6751 60.7279 35.9479 59.9069 36.0467C59.4971 36.0895 59.0592 36.0953 58.6214 35.9951C58.4018 35.9464 58.188 35.8757 57.9801 35.7858L57.961 35.7784L57.8357 35.7239L57.8297 35.7194L57.8077 35.7046L57.7634 35.6751L57.6751 35.6163L57.476 35.4747C57.0147 35.1224 56.7905 34.7966 56.6313 34.4901ZM59.8508 32.7742C59.3806 32.4631 58.9001 32.1904 58.4194 31.9531C57.9462 31.7084 57.4716 31.5005 57.0043 31.331C57.2122 31.813 57.4879 32.3983 57.8563 32.9334C57.9772 33.094 58.1069 33.2474 58.2455 33.3578C58.3796 33.4817 58.5359 33.5436 58.5227 33.5172C58.8132 33.6393 58.9754 33.5957 59.2479 33.5223C59.3071 33.5061 59.3718 33.4888 59.444 33.4714C59.7004 33.3888 59.9924 33.2415 60.2916 33.0734C60.1456 32.9731 59.9997 32.8685 59.8508 32.7742ZM6.08656 49.4936C6.7794 48.0195 7.38232 46.5234 8.1695 45.1731C8.51887 44.4743 8.92425 43.8228 9.3149 43.1786C9.7026 42.5328 10.0667 41.8887 10.4898 41.3064C11.2873 40.1079 12.1025 39.0127 12.8646 38.0014C13.6665 37.0256 14.3977 36.1161 15.092 35.348C15.7907 34.5859 16.4011 33.9107 16.9347 33.3875C17.9857 32.3201 18.6446 31.7526 18.6446 31.7526C18.6446 31.7526 18.4515 31.8514 18.0903 32.0371C17.7365 32.2361 17.1985 32.5073 16.5691 32.9334C15.9248 33.3417 15.1627 33.8695 14.3269 34.5269C13.4822 35.177 12.5712 35.9628 11.616 36.8679C10.6829 37.7936 9.67457 38.8108 8.73114 39.9944C8.22699 40.562 7.77738 41.1974 7.30124 41.8371C6.80888 42.4665 6.35927 43.1461 5.9362 43.8596C5.03403 45.2526 4.23211 46.7754 3.47884 48.3542C2.81401 49.9699 2.12412 51.6105 1.64503 53.325C1.37527 54.1726 1.14972 55.0319 0.997884 55.9046C0.828354 56.7729 0.632291 57.6323 0.489301 58.4933C0.383161 59.36 0.294723 60.2209 0.221013 61.0729C0.184153 61.4827 0.147305 61.8896 0.110455 62.2935C0.0868653 62.7181 0.0618002 63.1411 0.0382202 63.5597C-0.0914998 66.8545 0.122246 69.9074 0.478986 72.5004C0.837196 75.0918 1.34429 77.2146 1.78947 78.6682C1.9811 79.4007 2.21844 79.9565 2.34079 80.3427C2.47494 80.7245 2.54717 80.9295 2.54717 80.9295C2.54717 80.9295 2.4823 80.07 2.36733 78.5649C2.2494 77.0686 2.1757 74.9312 2.16832 72.3883C2.19633 69.844 2.30247 66.878 2.62825 63.7499C2.67395 63.3667 2.71964 62.9805 2.76535 62.5912C2.82725 62.1844 2.89064 61.7746 2.95255 61.3618C3.08228 60.5703 3.19873 59.7683 3.30044 58.9575C3.4508 58.1557 3.65276 57.3581 3.82523 56.5518C3.98001 55.7396 4.21145 54.9464 4.47384 54.1607C4.88512 52.554 5.49987 51.015 6.08656 49.4936ZM108.473 84.0899C111.376 84.5145 113.889 84.9685 115.949 85.393C120.067 86.2494 122.364 86.9497 122.364 86.9497C122.364 86.9497 120.005 86.5015 115.854 85.9562C111.708 85.4004 105.743 84.8299 98.61 84.7872C96.8263 84.7931 94.9675 84.824 93.0717 84.936C91.1597 85.0451 89.1447 85.1793 87.187 85.4608C83.2187 86.049 79.1353 87.2696 75.0402 88.9251C70.9273 90.548 66.8338 92.6678 62.5779 94.7168C60.4685 95.7414 58.275 96.8057 56.0977 97.7712C53.8585 98.7515 51.4954 99.6596 49.0793 100.209C44.2457 101.368 39.2454 101.648 34.4074 101.201C29.5575 100.753 24.9038 99.5416 20.617 97.6901C19.5025 97.245 18.5591 96.7232 17.5567 96.2411C17.0437 95.9449 16.5322 95.6485 16.025 95.3552C15.5401 95.0485 15.0787 94.7065 14.6099 94.3852C12.7761 93.0334 11.1855 91.4472 9.87209 89.7402C7.22456 86.3202 5.718 82.4699 4.93672 78.8789C4.08762 75.2746 4.06993 71.8915 4.07436 68.9698C4.09794 66.0274 4.29695 63.4683 4.5564 61.3766C4.81142 59.2834 5.17849 57.6662 5.44087 56.5709C5.70768 55.4771 5.88605 54.9052 5.88605 54.9052C5.88605 54.9052 5.76075 55.4934 5.59712 56.6033C5.42465 57.7105 5.25512 59.3482 5.12541 61.4296C5.01337 63.5141 4.98978 66.0496 5.16668 68.9447C5.36716 71.8444 5.62218 75.1037 6.573 78.4749C7.48695 81.8478 9.0849 85.3443 11.585 88.3752C12.8351 89.8846 14.321 91.26 16.0103 92.4157C16.4438 92.6885 16.8668 92.9818 17.3135 93.2427L18.649 93.9769C19.6441 94.4308 20.6686 94.9615 21.6548 95.3213C25.6437 96.9634 30.1192 97.9702 34.6595 98.3727C39.2115 98.7604 43.9023 98.4597 48.3821 97.3497C50.6449 96.844 52.7823 96.0421 54.9184 95.1282C57.1119 94.1744 59.2022 93.1763 61.3427 92.1578C65.5837 90.1176 69.8232 88.1172 74.0997 86.5104C78.3556 84.8682 82.7071 83.7494 86.9068 83.2821C89.037 83.061 91.0256 82.9872 92.9847 82.9681C94.9615 82.9489 96.8455 83.0138 98.6556 83.0978C102.276 83.2659 105.571 83.6683 108.473 84.0899ZM16.9111 82.9238C17.912 84.3935 18.9837 85.6658 19.9949 86.6947C21.0121 87.7148 21.9688 88.4872 22.6837 88.9928C23.3914 89.5087 23.8321 89.7844 23.8321 89.7844C23.8321 89.7844 23.7054 89.7653 23.468 89.7284C23.2336 89.6857 22.8695 89.6562 22.4375 89.525C21.559 89.3068 20.3045 88.8676 18.9586 88.0302C17.601 87.218 16.152 86.0195 14.8635 84.5144C14.2296 83.7553 13.5736 82.9607 13.0312 82.0747C12.4503 81.174 11.9698 80.2749 11.5158 79.3315C10.6269 77.4505 9.95024 75.484 9.48885 73.6074C9.01419 71.7338 8.74737 69.9471 8.64713 68.4111C8.5292 66.8751 8.56605 65.594 8.6368 64.6948C8.70756 63.803 8.79307 63.2959 8.79307 63.2959C8.79307 63.2959 9.39597 65.2137 10.3011 68.0912C10.764 69.5034 11.3168 71.1294 11.9595 72.8378C12.6022 74.5464 13.3584 76.3301 14.1765 78.0695C14.5746 78.9378 15.0375 79.8061 15.4738 80.5933C15.9382 81.4026 16.404 82.1942 16.9111 82.9238Z" fill="white"/>
</svg>
